<svg xmlns="http://www.w3.org/2000/svg" width="30" height="30" viewBox="0 0 30 30">
  <path id="github" d="M155,139a15.152,15.152,0,0,1,15,15.359,15.361,15.361,0,0,1-10.269,14.591.714.714,0,0,1-.981-.768v-4.194a3.491,3.491,0,0,0-1.038-2.835c3.288-.354,6.865-1.654,6.865-7.561a6.132,6.132,0,0,0-1.558-4.135,5.461,5.461,0,0,0-.115-4.076s-1.269-.413-4.154,1.595a13.491,13.491,0,0,0-7.5,0c-2.885-2.008-4.154-1.595-4.154-1.595a5.461,5.461,0,0,0-.115,4.076,6.132,6.132,0,0,0-1.558,4.135c0,5.907,3.577,7.207,6.865,7.561a3.018,3.018,0,0,0-.981,2.068,3.151,3.151,0,0,1-4.385-1.3,3.065,3.065,0,0,0-2.25-1.595s-1.5,0-.115.945a4.085,4.085,0,0,1,1.673,2.245s.923,3.013,5.077,2.068v2.6a.753.753,0,0,1-1.038.768A15.361,15.361,0,0,1,140,154.359,15.152,15.152,0,0,1,155,139Z" transform="translate(-140 -139)" fill="#212121"/>
</svg>
