<svg id="Layer_1" data-name="Layer 1" xmlns="http://www.w3.org/2000/svg" viewBox="0 0 30 30"><defs><style>.cls-1{fill:#fff;}.cls-2{fill:#6effd3;}</style></defs><g id="layer1"><path id="Path_21" data-name="Path 21" class="cls-1" d="M12.39,13.57v-.12l-.08.12Z" transform="translate(0 0)"/><path id="Path_22" data-name="Path 22" class="cls-2" d="M27.78,0H2.21A2.19,2.19,0,0,0,0,2.15v25.7a2.15,2.15,0,0,0,.66,1.53A2.24,2.24,0,0,0,2.21,30H27.78a2.26,2.26,0,0,0,1.56-.62A2.15,2.15,0,0,0,30,27.85V2.15A2.15,2.15,0,0,0,29.34.62,2.17,2.17,0,0,0,27.78,0ZM9.09,25.11H4.56V11.56H9.09ZM6.83,9.71h0A2.34,2.34,0,0,1,4.3,7.54a.91.91,0,0,1,0-.17,2.56,2.56,0,0,1,5.1,0,2.33,2.33,0,0,1-2.3,2.36l-.26,0Zm18.61,15.4H20.9V17.86c0-1.82-.65-3.06-2.29-3.06a2.47,2.47,0,0,0-2.33,1.64,3.18,3.18,0,0,0-.15,1.1v7.57H11.6s.06-12.28,0-13.55h4.53v1.92a4.48,4.48,0,0,1,4.09-2.23c3,0,5.22,1.93,5.22,6.1Z" transform="translate(0 0)"/></g></svg>