<svg xmlns="http://www.w3.org/2000/svg" width="30" height="30" viewBox="0 0 30 30">
  <g id="layer1" transform="translate(0 0)">
    <path id="Path_21" data-name="Path 21" d="M229.15,36v-.12l-.08.12Z" transform="translate(-216.759 -22.428)" fill="#fff"/>
    <path id="Path_22" data-name="Path 22" d="M225.712,1.61H200.144a2.193,2.193,0,0,0-1.555.618,2.165,2.165,0,0,0-.658,1.53v25.7a2.165,2.165,0,0,0,.658,1.53,2.193,2.193,0,0,0,1.555.618h25.569a2.193,2.193,0,0,0,1.558-.617,2.165,2.165,0,0,0,.66-1.532V3.758a2.165,2.165,0,0,0-.66-1.532,2.193,2.193,0,0,0-1.558-.617ZM207.022,26.722h-4.53V13.174h4.53Zm-2.265-15.4h-.028a2.341,2.341,0,0,1-2.507-2.341,2.56,2.56,0,0,1,5.1,0A2.329,2.329,0,0,1,204.757,11.325Zm18.611,15.4H218.83V19.47c0-1.818-.653-3.061-2.293-3.061a2.478,2.478,0,0,0-2.324,1.645,3.02,3.02,0,0,0-.15,1.1v7.567h-4.53s.059-12.277,0-13.548h4.53v1.92a4.5,4.5,0,0,1,4.091-2.235c2.982,0,5.219,1.936,5.219,6.1Z" transform="translate(-197.93 -1.61)" fill="#212121"/>
  </g>
</svg>
