<svg id="Layer_1" data-name="Layer 1" xmlns="http://www.w3.org/2000/svg" viewBox="0 0 30 30.01"><defs><style>.cls-1{fill:#6effd3;}</style></defs><path id="github" class="cls-1" d="M15,0A15.15,15.15,0,0,1,30,15.3v.06A15.35,15.35,0,0,1,19.73,30a.71.71,0,0,1-.93-.38.74.74,0,0,1-.05-.39V25a3.49,3.49,0,0,0-1-2.84c3.29-.35,6.87-1.65,6.87-7.56A6.15,6.15,0,0,0,23,10.46a5.43,5.43,0,0,0-.12-4.08S21.64,6,18.75,8a13.47,13.47,0,0,0-7.5,0C8.37,6,7.1,6.38,7.1,6.38A5.43,5.43,0,0,0,7,10.46a6.15,6.15,0,0,0-1.56,4.13c0,5.91,3.58,7.21,6.87,7.56a3,3,0,0,0-1,2.07A3.15,3.15,0,0,1,7,23.07l-.08-.15a3,3,0,0,0-2.25-1.59s-1.5,0-.11.94a4.11,4.11,0,0,1,1.67,2.25s.92,3,5.08,2.06v2.6a.76.76,0,0,1-.68.83.74.74,0,0,1-.36-.06A15.35,15.35,0,0,1,0,15.36,15.16,15.16,0,0,1,14.94,0Z" transform="translate(0)"/></svg>